<svg width="38" height="38" viewBox="0 0 38 38" fill="none" xmlns="http://www.w3.org/2000/svg">
<rect width="38" height="38" fill="#1C1D1F"/>
<path d="M26.4606 21.1541L27.2023 21.8249L27.2302 21.794C27.6858 21.2902 28.0663 20.8695 28.3377 20.5192C28.6008 20.1798 28.8792 19.7646 28.9546 19.2749L28.9546 19.2748C29.102 18.3175 28.6817 17.3591 27.874 16.8221C27.4602 16.547 26.9647 16.4747 26.5378 16.442C26.0967 16.4082 25.5306 16.4083 24.8533 16.4083H24.8122C24.2321 16.4083 23.8558 16.4075 23.579 16.3859C23.3611 16.3689 23.2867 16.3429 23.2767 16.3394C23.1365 16.2545 23.0468 16.1014 23.0432 15.932C23.0448 15.9226 23.0583 15.8444 23.1544 15.6402C23.2733 15.3874 23.4596 15.0581 23.7473 14.5519L25.2302 11.9434L25.2302 11.9434L25.269 11.875C25.7982 10.9443 26.2504 10.1489 26.5051 9.49217C26.7694 8.81064 26.9298 8.00858 26.4864 7.24056C26.0419 6.47068 25.266 6.21132 24.5438 6.10353C23.8494 5.99988 22.9373 5.99993 21.872 6L21.7923 6H18.9019L18.8496 6C17.961 5.99997 17.2158 5.99995 16.6036 6.06577C15.9553 6.13546 15.3671 6.28598 14.8205 6.64311C14.2742 7 13.8993 7.47836 13.5733 8.04436C13.2652 8.57942 12.9628 9.26346 12.6017 10.0801L12.5807 10.1277L10.0746 15.7961C10.0643 15.8194 10.054 15.8427 10.0437 15.8658C9.65329 16.7488 9.3157 17.5122 9.14219 18.1397C8.95939 18.8009 8.88752 19.5539 9.33636 20.2482L26.4606 21.1541ZM26.4606 21.1541L27.2023 21.8249L19.5453 30.2919L19.497 30.3452C18.7861 31.1314 18.1899 31.7907 17.7056 32.2129C17.4595 32.4275 17.1714 32.6457 16.8515 32.7755C16.4997 32.9182 16.0383 32.978 15.5805 32.7395L15.5803 32.7394C15.1237 32.5013 14.9084 32.0903 14.8224 31.7224C14.7439 31.3868 14.755 31.0258 14.7876 30.7001C14.8516 30.0595 15.0438 29.1904 15.2731 28.1531L15.2887 28.0827L15.2887 28.0826L16.2388 23.7851C16.2388 23.7851 16.2388 23.7851 16.2388 23.7851C16.4301 22.9195 16.5478 22.3758 16.5779 21.9767C16.5921 21.7892 16.5817 21.6842 16.5696 21.6276C16.56 21.5831 16.5502 21.5709 16.5434 21.5624L16.5434 21.5623L16.5432 21.5622C16.5365 21.5537 16.5274 21.5423 16.4882 21.5241C16.4375 21.5006 16.3392 21.468 16.155 21.4414C15.7622 21.3846 15.2099 21.3821 14.3273 21.3821H13.6924L13.6157 21.3821C12.6552 21.3821 11.8232 21.3822 11.1813 21.2866C10.5033 21.1856 9.7863 20.9442 9.33641 20.2483L26.4606 21.1541Z" fill="url(#paint0_linear_794_43)" stroke="url(#paint1_linear_794_43)" stroke-width="2" stroke-linejoin="round"/>
<defs>
<linearGradient id="paint0_linear_794_43" x1="18.1964" y1="3.35714" x2="17.2857" y2="32.5" gradientUnits="userSpaceOnUse">
<stop offset="0.205" stop-color="#F9B4DB"/>
<stop offset="1" stop-color="#F156AE"/>
</linearGradient>
<linearGradient id="paint1_linear_794_43" x1="18.9919" y1="7" x2="18.9919" y2="31.9005" gradientUnits="userSpaceOnUse">
<stop stop-color="#F156AE" stop-opacity="0"/>
<stop offset="1" stop-color="#F156AE" stop-opacity="0.16"/>
</linearGradient>
</defs>
</svg>
